<svg width="100" height="100" viewBox="0 0 100 100" fill="none" xmlns="http://www.w3.org/2000/svg">
<circle cx="50" cy="50" r="50" fill="#535353"/>
<path d="M56.6399 25C58.3869 25 60.0103 25.8897 60.935 27.3537L64.3574 32.7721H69.6875C73.7261 32.7721 77 36.006 77 39.9953V67.7768C77 71.7661 73.7261 75 69.6875 75H30.3125C26.2739 75 23 71.7661 23 67.7768V39.9953C23 36.006 26.2739 32.7721 30.3125 32.7721H36.0917L39.2024 27.4871C40.1088 25.9474 41.7758 25 43.579 25H56.6399ZM56.6399 28.3338H43.579C43.0638 28.3338 42.5819 28.5658 42.2645 28.9553L42.1201 29.1628L38.5213 35.2768C38.2192 35.7901 37.6635 36.1058 37.0625 36.1058H30.3125C28.1379 36.1058 26.375 37.8472 26.375 39.9953V67.7768C26.375 69.9249 28.1379 71.6662 30.3125 71.6662H69.6875C71.8621 71.6662 73.625 69.9249 73.625 67.7768V39.9953C73.625 37.8472 71.8621 36.1058 69.6875 36.1058H63.4212C62.8389 36.1058 62.2977 35.8093 61.9895 35.3213L58.0716 29.1183C57.7634 28.6303 57.2222 28.3338 56.6399 28.3338ZM50 40.5531C56.8345 40.5531 62.375 46.0259 62.375 52.777C62.375 59.528 56.8345 65.0008 50 65.0008C43.1655 65.0008 37.625 59.528 37.625 52.777C37.625 46.0259 43.1655 40.5531 50 40.5531ZM50 43.8869C45.0294 43.8869 41 47.8671 41 52.777C41 57.6868 45.0294 61.6671 50 61.6671C54.9706 61.6671 59 57.6868 59 52.777C59 47.8671 54.9706 43.8869 50 43.8869Z" fill="#7B7B7B"/>
</svg>
